<?xml version="1.0" standalone="no"?>
<!DOCTYPE svg PUBLIC "-//W3C//DTD SVG 20010904//EN"
 "http://www.w3.org/TR/2001/REC-SVG-20010904/DTD/svg10.dtd">
<svg version="1.0" xmlns="http://www.w3.org/2000/svg"
 width="400.000000pt" height="400.000000pt" viewBox="0 0 400.000000 400.000000"
 preserveAspectRatio="xMidYMid meet">
<metadata>
Created by potrace 1.14, written by Peter Selinger 2001-2017
</metadata>
<g transform="translate(0.000000,400.000000) scale(0.100000,-0.100000)"
fill="#000000" stroke="none">
<path d="M727 3903 c-1 -1 -38 -3 -82 -4 -111 -3 -151 -15 -181 -55 -19 -25
-26 -46 -27 -88 -1 -42 -6 -56 -17 -57 -8 0 -59 0 -113 0 -84 0 -101 -3 -118
-20 -23 -23 -142 -38 -153 -20 -4 6 -14 11 -21 11 -13 0 -15 -250 -15 -1835
l0 -1835 314 0 313 0 36 52 c20 29 44 64 54 78 9 14 27 36 39 50 14 16 25 44
29 75 3 28 13 83 21 124 8 41 13 80 10 87 -3 7 -1 26 4 43 4 16 5 32 2 36 -7
7 -10 21 -17 93 -3 29 -8 70 -11 90 -2 20 -7 53 -10 72 -2 19 -7 67 -9 105 -4
81 6 101 55 110 18 3 36 8 40 10 4 2 38 7 76 10 145 13 198 19 244 30 3 1 34
5 70 9 71 9 80 11 155 26 28 6 61 12 75 15 14 3 59 11 100 20 41 8 95 17 120
19 25 3 56 8 70 11 128 27 335 38 348 19 4 -7 40 -23 81 -37 41 -15 99 -41
130 -60 33 -20 82 -39 121 -47 59 -11 138 -42 150 -60 3 -4 46 -28 95 -54 50
-26 115 -67 147 -92 31 -24 59 -44 62 -44 3 0 27 -15 53 -34 112 -79 176 -99
328 -99 148 0 190 10 249 57 28 24 65 46 81 50 17 3 35 8 42 9 7 2 16 6 19 10
4 4 14 7 22 7 9 0 32 8 53 17 50 22 69 60 63 133 -4 54 -3 56 36 94 22 21 40
41 40 46 0 4 23 16 51 26 l50 18 -3 201 c-3 186 -5 203 -26 244 -15 28 -22 55
-19 76 2 17 -2 48 -11 69 -14 35 -17 37 -54 35 -35 -3 -44 2 -86 42 -26 25
-66 58 -90 72 -38 25 -42 31 -42 66 0 66 -43 94 -127 86 -49 -6 -61 -3 -78 13
-11 10 -33 27 -48 36 -17 12 -27 27 -27 43 0 29 -17 65 -36 76 -26 15 -14 26
34 32 97 14 152 35 158 61 13 49 -2 67 -88 109 -45 22 -96 49 -113 60 -16 12
-46 27 -65 35 -71 29 -137 79 -233 173 -53 53 -104 97 -112 97 -8 0 -15 3 -15
8 0 4 -18 18 -40 32 -22 14 -40 28 -40 31 0 4 -21 17 -47 29 -27 12 -59 32
-73 45 -14 12 -63 47 -110 77 -47 30 -107 71 -133 91 -27 20 -54 37 -60 37 -7
0 -27 13 -45 30 -18 16 -57 43 -85 61 -29 18 -78 50 -110 72 -66 44 -103 57
-197 64 -78 6 -92 6 -152 -1 -26 -2 -63 0 -82 5 -26 7 -53 5 -102 -6 -37 -8
-69 -13 -73 -10 -3 3 0 15 7 25 7 12 10 38 7 65 l-6 45 83 0 c94 0 116 10 142
64 29 61 16 149 -27 185 -29 23 -35 24 -435 17 -123 -2 -221 -2 -218 1 3 3 -6
27 -19 54 -14 27 -25 59 -25 73 0 43 -51 57 -212 59 -77 1 -140 1 -141 0z
m-650 -418 c2 -35 -13 -48 -23 -20 -4 8 -9 13 -13 11 -4 -3 -13 0 -21 5 -12 7
-11 10 8 15 12 4 22 10 22 15 0 5 6 9 13 9 7 0 13 -15 14 -35z m1403 -51 c7
-7 5 -16 -8 -30 -12 -13 -17 -32 -16 -61 3 -38 0 -43 -19 -44 -85 -4 -107 -3
-108 1 -7 38 -11 101 -7 135 2 13 144 13 158 -1z m254 -293 c3 -5 -3 -19 -13
-32 -10 -13 -28 -46 -40 -74 -12 -27 -31 -59 -42 -71 -18 -19 -25 -20 -72 -11
-77 14 -84 28 -54 109 16 46 21 51 52 54 13 1 35 10 47 18 24 17 113 22 122 7z
m84 -60 c7 -21 19 -44 27 -51 21 -18 19 -23 -22 -64 -42 -40 -78 -50 -141 -39
l-44 8 22 25 c13 14 33 48 45 75 13 28 35 63 49 78 32 34 47 27 64 -32z m-320
7 c-3 -21 -92 -118 -108 -118 -4 0 -13 6 -19 13 -8 10 -5 22 14 48 52 71 120
105 113 57z m693 -8 c24 -16 64 -46 89 -65 25 -19 52 -38 60 -42 23 -10 123
-86 137 -103 7 -8 13 -19 13 -23 0 -4 -88 -6 -196 -4 -243 5 -232 -1 -237 143
l-3 101 40 10 c23 6 43 11 47 12 3 0 25 -12 50 -29z m-289 -111 c3 -55 -6 -84
-16 -52 -5 15 -13 19 -32 15 -24 -4 -25 -3 -15 17 7 11 16 21 21 21 6 0 10 8
10 18 0 19 8 32 21 32 4 0 9 -23 11 -51z m-429 12 c3 -13 0 -18 -12 -16 -9 2
-23 4 -31 5 -10 0 -6 6 10 15 14 8 26 14 26 15 1 0 4 -9 7 -19z"/>
</g>
</svg>
